<svg width="34" height="34" viewBox="0 0 34 34" fill="none" xmlns="http://www.w3.org/2000/svg">
<path d="M17.0007 34C26.3744 34 34.0004 26.3737 34.0004 16.9999C34.0004 7.62627 26.3744 0 17.0007 0C7.62709 0 0.000976562 7.62627 0.000976562 16.9999C0.000976562 26.3737 7.62709 34 17.0007 34ZM17.0007 2.32716C25.0912 2.32716 31.6732 8.90931 31.6734 16.9999C31.6734 25.0905 25.0914 31.6727 17.0007 31.6728C8.91029 31.6727 2.32829 25.0905 2.32829 16.9998C2.32829 8.90946 8.91029 2.32716 17.0007 2.32716Z" fill="#09425A"/>
<path d="M14.7172 24.2812C15.1716 24.7354 15.9084 24.7353 16.3626 24.2812C16.8172 23.8266 16.8172 23.09 16.3625 22.6354L11.8912 18.1643L24.8391 18.1631C25.4817 18.1629 26.0025 17.6421 26.0025 16.9992C26.0023 16.3566 25.4815 15.8359 24.8389 15.8359L11.8906 15.8371L16.3629 11.3651C16.8173 10.9107 16.8173 10.1737 16.3629 9.71948C16.1356 9.49235 15.8379 9.37863 15.54 9.37863C15.2423 9.37863 14.9446 9.49235 14.7173 9.71933L8.25882 16.1777C8.04053 16.3958 7.91797 16.6917 7.91797 17.0004C7.91812 17.3091 8.04069 17.6048 8.25898 17.8234L14.7172 24.2812Z" fill="#09425A"/>
</svg>
