<svg width="15" height="16" viewBox="0 0 15 16" fill="none" xmlns="http://www.w3.org/2000/svg">
<path d="M7.49968 0.14093C3.3581 0.14093 0 3.52156 0 7.69095C0 11.8603 3.3581 15.2416 7.49968 15.2416C11.6413 15.2416 15 11.8603 15 7.69095C15 3.52156 11.6413 0.14093 7.49968 0.14093ZM9.06095 11.8424C8.67492 11.9958 8.36762 12.1122 8.13714 12.1927C7.9073 12.2732 7.64 12.3135 7.33587 12.3135C6.86857 12.3135 6.50476 12.1985 6.24571 11.969C5.98667 11.7395 5.85778 11.4487 5.85778 11.0952C5.85778 10.9578 5.8673 10.8172 5.88635 10.674C5.90603 10.5308 5.93714 10.3698 5.97968 10.1889L6.46286 8.47075C6.5054 8.30584 6.54222 8.14924 6.57143 8.00351C6.60064 7.85649 6.6146 7.72163 6.6146 7.5989C6.6146 7.3803 6.56952 7.2269 6.48 7.14061C6.38921 7.05432 6.21841 7.01214 5.96381 7.01214C5.83937 7.01214 5.71111 7.03067 5.57968 7.06966C5.44952 7.10993 5.33651 7.14636 5.24381 7.18216L5.37143 6.65291C5.68762 6.52316 5.99048 6.41194 6.27937 6.3199C6.56825 6.22658 6.84127 6.18056 7.09841 6.18056C7.56254 6.18056 7.92064 6.29433 8.1727 6.51933C8.42349 6.74496 8.54984 7.03834 8.54984 7.39884C8.54984 7.47362 8.54095 7.6053 8.52381 7.79322C8.50667 7.98177 8.47429 8.15371 8.4273 8.31159L7.94667 10.0246C7.9073 10.162 7.87238 10.3193 7.84064 10.495C7.80952 10.6708 7.79429 10.805 7.79429 10.8952C7.79429 11.1227 7.84444 11.278 7.94603 11.3605C8.04635 11.4429 8.22222 11.4845 8.47111 11.4845C8.58857 11.4845 8.72 11.4634 8.86857 11.4225C9.01587 11.3816 9.12254 11.3451 9.18984 11.3138L9.06095 11.8424ZM8.97587 4.88941C8.75175 5.09906 8.4819 5.20389 8.16635 5.20389C7.85143 5.20389 7.57968 5.09906 7.35365 4.88941C7.12889 4.67976 7.01524 4.42473 7.01524 4.12687C7.01524 3.82965 7.12952 3.57398 7.35365 3.36241C7.57968 3.1502 7.85143 3.04473 8.16635 3.04473C8.4819 3.04473 8.75238 3.1502 8.97587 3.36241C9.2 3.57398 9.31238 3.82965 9.31238 4.12687C9.31238 4.42537 9.2 4.67976 8.97587 4.88941Z" fill="white"/>
</svg>
